# xmcd
#
# Track frame offsets:
#	150
#	22174
#	36084
#	54864
#	79659
#	108871
#	134232
#	155012
#	171532
#	191902
#
# Disc length: 2772 seconds
#
# Revision: 0
# Processed by: cddbd v1.5.2PL0 Copyright (c) Steve Scherf et al.
# Submitted via: EasyCDDAExtractor 16.1.0.1
#
DISCID=8c0ad20a
DTITLE=赵鹏 - 谜
DYEAR=2018
DGENRE=Pop
TTITLE0=谜
TTITLE1=没词儿
TTITLE2=不期
TTITLE3=前世的印记
TTITLE4=如此
TTITLE5=哟哟
TTITLE6=看上去很美
TTITLE7=花靥
TTITLE8=寻找
TTITLE9=蹈
EXTD=
EXTT0=
EXTT1=
EXTT2=
EXTT3=
EXTT4=
EXTT5=
EXTT6=
EXTT7=
EXTT8=
EXTT9=
PLAYORDER=
